<svg width="32" height="32" viewBox="0 0 32 32" fill="none" xmlns="http://www.w3.org/2000/svg">
<path d="M29.1875 0H2.8125C1.26169 0 0 1.26169 0 2.8125V29.1875C0 30.7383 1.26169 32 2.8125 32H29.1875C30.7383 32 32 30.7383 32 29.1875V2.8125C32 1.26169 30.7383 0 29.1875 0ZM30.125 29.1875C30.125 29.7044 29.7044 30.125 29.1875 30.125H2.8125C2.29556 30.125 1.875 29.7044 1.875 29.1875V2.8125C1.875 2.29556 2.29556 1.875 2.8125 1.875H29.1875C29.7044 1.875 30.125 2.29556 30.125 2.8125V29.1875Z" fill="black"/>
<path d="M24.6177 15.3371L18.6516 9.37089L20.6404 7.38214C21.0062 7.01627 21.0065 6.42239 20.6404 6.05633L19.3146 4.73052C18.2155 3.63146 16.4363 3.63121 15.3371 4.73052L7.38211 12.6855C6.28555 13.782 6.28555 15.5663 7.38211 16.6629C7.97949 17.2603 12.7422 22.023 13.3483 22.6291L11.3596 24.6178C10.9934 24.984 10.9934 25.5775 11.3596 25.9436L12.6854 27.2695C13.7819 28.366 15.5662 28.3661 16.6628 27.2695L24.6177 19.3145C25.7168 18.2155 25.7171 16.4363 24.6177 15.3371ZM16.6629 6.05633C17.0292 5.69002 17.6222 5.68989 17.9887 6.05633L18.6516 6.71927L12.0225 13.3484L11.3596 12.6855C11.1302 12.4561 10.8682 12.2713 10.5841 12.1352L16.6629 6.05633ZM15.3371 25.9436C14.9715 26.3093 14.3767 26.3092 14.0112 25.9437L13.3484 25.2808L14.6742 23.955L15.3371 24.6178C15.7026 24.9834 15.7026 25.5781 15.3371 25.9436ZM23.2921 17.9888L17.2118 24.069C17.0779 23.788 16.8953 23.5245 16.6629 23.2921C15.2747 21.9038 10.746 17.3751 8.70799 15.3371C8.34168 14.9708 8.34155 14.3778 8.70799 14.0113C9.07443 13.645 9.66736 13.6449 10.0338 14.0113L11.3596 15.3371C11.7257 15.7032 12.3193 15.7033 12.6854 15.3371L17.3258 10.6968L23.2921 16.663C23.6584 17.0293 23.6584 17.6223 23.2921 17.9888Z" fill="black"/>
</svg>
